<?xml version="1.0" encoding="utf-8"?>
<!-- Generator: Adobe Illustrator 27.1.1, SVG Export Plug-In . SVG Version: 6.00 Build 0)  -->
<svg version="1.1" id="Layer_1" xmlns="http://www.w3.org/2000/svg" xmlns:xlink="http://www.w3.org/1999/xlink" x="0px" y="0px"
	 viewBox="0 0 32 30" style="enable-background:new 0 0 32 30;" xml:space="preserve">
<style type="text/css">
	.st0{fill:#6302EC;}
</style>
<path class="st0" d="M13,29.5l-1.7-3.1c2.5-1.4,14.2-8.6,14.3-8.6l0.1-0.1c1.5-0.7,2.3-2,2.3-3.4c0-1.3-0.9-2.5-2.3-3.2
	c-0.5-0.3-12-6.2-14.5-7.7l1.8-3C15.5,2,27.3,8,27.4,8c2.6,1.2,4.2,3.6,4.3,6.3c0,2.7-1.5,5.1-4.2,6.5C26.4,21.5,15.6,28.2,13,29.5z
	 M23.3,16.8H0v-3.5h23.3V16.8z"/>
</svg>
